<svg width="20" height="20" viewBox="0 0 20 20" fill="none" xmlns="http://www.w3.org/2000/svg">
<path d="M9.09358 10.9055C8.93432 10.7466 8.74451 10.6215 8.53561 10.5379L1.92728 7.88785C1.84837 7.85619 1.78104 7.80115 1.73432 7.73013C1.6876 7.6591 1.66373 7.57547 1.66591 7.49049C1.66809 7.4055 1.69621 7.32321 1.7465 7.25466C1.7968 7.18612 1.86686 7.1346 1.94728 7.10702L17.7806 1.69035C17.8544 1.66368 17.9344 1.65859 18.011 1.67568C18.0876 1.69277 18.1578 1.73132 18.2133 1.78683C18.2688 1.84235 18.3074 1.91252 18.3244 1.98915C18.3415 2.06577 18.3364 2.14568 18.3098 2.21952L12.8931 18.0529C12.8655 18.1333 12.814 18.2033 12.7455 18.2536C12.6769 18.3039 12.5946 18.332 12.5096 18.3342C12.4247 18.3364 12.341 18.3125 12.27 18.2658C12.199 18.2191 12.1439 18.1518 12.1123 18.0729L9.46228 11.4629C9.37826 11.2541 9.25284 11.0645 9.09358 10.9055ZM9.09358 10.9055L18.2106 1.79035" stroke="white" stroke-width="2" stroke-linecap="round" stroke-linejoin="round"/>
</svg>
